Coordinates
version=1
nRows=60
nColumns=12
inDegrees=yes

Units are S.I. units (second, meters, Newtons, ...)
Angles are in degrees

endheader
time	SC_y	SC_z	SC_x	AC_y	AC_z	AC_x	GH_y	GH_z	GH_yy	EL_x	PS_y
       0.0               -35.0          11.52          39.06          41.17          3.077        -0.4022          157.3          16.01           16.3          106.2          45.52
   0.04148               -35.0          11.52          39.06          41.17          3.077         -0.404          157.3          16.02          16.32          106.2          45.54
   0.08296               -35.0          11.52          39.06          41.17          3.077        -0.4059          157.2          16.03          16.34          106.2          45.55
    0.1244               -35.0          11.52          39.05          41.18          3.077        -0.4079          157.2          16.04          16.36          106.2          45.57
    0.1659              -34.99          11.52          39.05          41.18          3.077        -0.4101          157.2          16.05          16.38          106.2          45.59
    0.2074              -34.99          11.52          39.04          41.18          3.077        -0.4124          157.1          16.06          16.41          106.2           45.6
    0.2489              -34.99          11.52          39.04          41.19          3.077        -0.4149          157.1          16.07          16.44          106.2          45.62
    0.2904              -34.98          11.52          39.03          41.19          3.076        -0.4175          157.1          16.09          16.47          106.2          45.65
    0.3319              -34.98          11.52          39.02          41.19          3.076        -0.4203          157.0           16.1           16.5          106.2          45.67
    0.3733              -34.98          11.52          39.02           41.2          3.076        -0.4234          157.0          16.12          16.53          106.2          45.69
    0.4148              -34.97          11.53          39.01           41.2          3.076        -0.4266          156.9          16.14          16.57          106.2          45.72
    0.4563              -34.97          11.53           39.0          41.21          3.076        -0.4301          156.8          16.16          16.61          106.2          45.75
    0.4978              -34.96          11.53          38.99          41.22          3.076        -0.4339          156.8          16.17          16.65          106.2          45.78
    0.5393              -34.96          11.53          38.99          41.22          3.076         -0.438          156.7           16.2           16.7          106.2          45.81
    0.5807              -34.95          11.53          38.98          41.23          3.075        -0.4424          156.6          16.22          16.75          106.2          45.84
    0.6222              -34.95          11.53          38.97          41.24          3.075        -0.4472          156.6          16.24           16.8          106.2          45.88
    0.6637              -34.94          11.53          38.96          41.24          3.075        -0.4524          156.5          16.27          16.86          106.2          45.93
    0.7052              -34.93          11.54          38.94          41.25          3.075         -0.458          156.4           16.3          16.92          106.2          45.97
    0.7467              -34.92          11.54          38.93          41.26          3.075        -0.4642          156.3          16.33          16.99          106.2          46.02
    0.7882              -34.92          11.54          38.91          41.27          3.074         -0.471          156.2          16.37          17.07          106.2          46.07
    0.8296              -34.91          11.54           38.9          41.28          3.074        -0.4784          156.1          16.41          17.15          106.2          46.13
    0.8711               -34.9          11.55          38.88           41.3          3.074        -0.4866          155.9          16.45          17.24          106.2           46.2
    0.9126              -34.88          11.55          38.86          41.31          3.073        -0.4956          155.8           16.5          17.35          106.2          46.27
    0.9541              -34.87          11.55          38.84          41.33          3.073        -0.5056          155.6          16.55          17.46          106.2          46.35
    0.9956              -34.86          11.56          38.82          41.34          3.073        -0.5168          155.4          16.61          17.58          106.2          46.44
     1.037              -34.84          11.56          38.79          41.36          3.072        -0.5292          155.2          16.68          17.72          106.2          46.54
     1.079              -34.82          11.56          38.76          41.38          3.072        -0.5431          155.0          16.75          17.88          106.2          46.65
      1.12               -34.8          11.57          38.73          41.41          3.071        -0.5588          154.7          16.83          18.06          106.2          46.78
     1.161              -34.78          11.57          38.69          41.43           3.07        -0.5764          154.4          16.93          18.25          106.2          46.92
     1.203              -34.76          11.58          38.64          41.46          3.069        -0.5965          154.1          17.03          18.48          106.2          47.08
     1.244              -34.73          11.59          38.59           41.5          3.069        -0.6194          153.7          17.15          18.74          106.2          47.27
     1.286              -34.69           11.6          38.54          41.54          3.068        -0.6457          153.3          17.29          19.03          106.2          47.48
     1.327              -34.65          11.61          38.47          41.59          3.066        -0.6761          152.8          17.45          19.37          106.2          47.72
     1.369              -34.61          11.62           38.4          41.64          3.065        -0.7114          152.2          17.64          19.77          106.2          48.01
      1.41              -34.56          11.63          38.31           41.7          3.063        -0.7527          151.5          17.85          20.24          106.2          48.34
     1.452               -34.5          11.65           38.2          41.78          3.062        -0.8014          150.7          18.11          20.78          106.2          48.73
     1.493              -34.42          11.67          38.08          41.87          3.059        -0.8592          149.8          18.42          21.43          106.2           49.2
     1.535              -34.33          11.69          37.93          41.97          3.057        -0.9285          148.7          18.78          22.21          106.2          49.75
     1.576              -34.23          11.72          37.75           42.1          3.053         -1.012          147.3          19.22          23.15          106.2          50.43
     1.618               -34.1          11.75          37.53          42.26          3.049         -1.115          145.6          19.76          24.31          106.2          51.25
     1.659              -33.94          11.79          37.25          42.45          3.044         -1.241          143.5          20.43          25.73          106.2          52.27
     1.701              -33.74          11.84          36.91          42.69          3.038         -1.399          140.9          21.26           27.5          106.2          53.53
     1.742              -33.48          11.91          36.49           43.0          3.031         -1.598          137.7          22.31          29.73          106.2          55.13
     1.784              -33.16          11.99          35.94          43.38          3.021          -1.85          133.5          23.64          32.57          106.2          57.16
     1.825              -32.75          12.09          35.25          43.88          3.008         -2.173          128.2          25.34           36.2          106.2          59.76
     1.867              -32.23          12.23          34.35          44.51          2.992         -2.588          121.4          27.52          40.87          106.2          63.09
     1.908              -31.55           12.4          33.21          45.32          2.971         -3.118          112.7          30.32          46.82          106.2          67.35
      1.95              -30.71          12.62          31.77          46.34          2.945         -3.784          101.7          33.83          54.31          106.2          72.71
     1.991              -29.68          12.88          30.02          47.58          2.914         -4.596          88.41           38.1          63.43          106.2          79.23
     2.033              -28.48          13.18          27.99          49.02          2.877         -5.537          72.95          43.06          74.01          106.2           86.8
     2.074              -27.19          13.52           25.8          50.58          2.838         -6.556          56.21          48.43          85.46          106.1          94.99
     2.116              -25.89          13.85           23.6          52.14          2.798         -7.575          39.47           53.8          96.92          106.1          103.2
     2.157               -24.7          14.15          21.57          53.58          2.761         -8.516          24.01          58.76          107.5          106.1          110.7
     2.199              -23.67          14.42          19.82          54.82           2.73         -9.328          10.67          63.03          116.6          106.1          117.3
      2.24              -22.82          14.63          18.39          55.84          2.704         -9.994        -0.2768          66.54          124.1          106.1          122.6
     2.282              -22.15           14.8          17.25          56.65          2.683         -10.52         -8.981          69.33          130.1          106.1          126.9
     2.323              -21.62          14.94          16.35          57.29          2.667         -10.94          -15.8          71.52          134.7          106.1          130.2
     2.364              -21.21          15.04          15.66          57.78          2.655         -11.26         -21.11          73.22          138.4          106.1          132.8
     2.406              -20.89          15.12          15.11          58.17          2.645         -11.51         -25.25          74.55          141.2          106.1          134.8
     2.447              -20.64          15.19          14.68          58.47          2.637         -11.71         -28.52           75.6          143.4          106.1          136.4
